<mxfile host="Electron" agent="Mozilla/5.0 (Windows NT 10.0; Win64; x64) AppleWebKit/537.36 (KHTML, like Gecko) draw.io/26.1.1 Chrome/132.0.6834.210 Electron/34.3.3 Safari/537.36" version="26.1.1">
  <diagram name="Page-1" id="gG-sDCkg428NJglWX8ba">
    <mxGraphModel dx="915" dy="415" grid="1" gridSize="10" guides="1" tooltips="1" connect="1" arrows="1" fold="1" page="1" pageScale="1" pageWidth="850" pageHeight="1100" math="0" shadow="0">
      <root>
        <mxCell id="0" />
        <mxCell id="1" parent="0" />
        <mxCell id="NBYfNlScyztqVg3j37kq-5" value="GeometricObject" style="swimlane;fontStyle=1;align=center;verticalAlign=top;childLayout=stackLayout;horizontal=1;startSize=26;horizontalStack=0;resizeParent=1;resizeParentMax=0;resizeLast=0;collapsible=1;marginBottom=0;whiteSpace=wrap;html=1;fillColor=#dae8fc;strokeColor=#6c8ebf;" vertex="1" parent="1">
          <mxGeometry x="480" y="210" width="270" height="180" as="geometry" />
        </mxCell>
        <mxCell id="NBYfNlScyztqVg3j37kq-6" value="color: String&lt;div&gt;filled: boolean&lt;/div&gt;" style="text;strokeColor=#6c8ebf;fillColor=#dae8fc;align=left;verticalAlign=top;spacingLeft=4;spacingRight=4;overflow=hidden;rotatable=0;points=[[0,0.5],[1,0.5]];portConstraint=eastwest;whiteSpace=wrap;html=1;spacingTop=-4;" vertex="1" parent="NBYfNlScyztqVg3j37kq-5">
          <mxGeometry y="26" width="270" height="34" as="geometry" />
        </mxCell>
        <mxCell id="NBYfNlScyztqVg3j37kq-7" value="" style="line;strokeWidth=1;fillColor=none;align=left;verticalAlign=middle;spacingTop=-1;spacingLeft=3;spacingRight=3;rotatable=0;labelPosition=right;points=[];portConstraint=eastwest;strokeColor=inherit;" vertex="1" parent="NBYfNlScyztqVg3j37kq-5">
          <mxGeometry y="60" width="270" as="geometry" />
        </mxCell>
        <mxCell id="NBYfNlScyztqVg3j37kq-8" value="GeometricObject()&lt;div&gt;GeometricObject(color: String, filled: boolean)&lt;/div&gt;&lt;div&gt;getColor(): string&lt;/div&gt;&lt;div&gt;isFilled(): boolean&lt;/div&gt;&lt;div&gt;setColor(color: String): void&lt;/div&gt;&lt;div&gt;setFilled(filled: boolean): void&lt;/div&gt;&lt;div&gt;getArea(): double&lt;/div&gt;&lt;div&gt;getPerimeter(): double&lt;/div&gt;" style="text;strokeColor=#6c8ebf;fillColor=#dae8fc;align=left;verticalAlign=top;spacingLeft=4;spacingRight=4;overflow=hidden;rotatable=0;points=[[0,0.5],[1,0.5]];portConstraint=eastwest;whiteSpace=wrap;html=1;spacingTop=-6;" vertex="1" parent="NBYfNlScyztqVg3j37kq-5">
          <mxGeometry y="60" width="270" height="120" as="geometry" />
        </mxCell>
        <mxCell id="NBYfNlScyztqVg3j37kq-9" value="Triangle" style="swimlane;fontStyle=1;align=center;verticalAlign=top;childLayout=stackLayout;horizontal=1;startSize=26;horizontalStack=0;resizeParent=1;resizeParentMax=0;resizeLast=0;collapsible=1;marginBottom=0;whiteSpace=wrap;html=1;fillColor=#dae8fc;strokeColor=#6c8ebf;spacingTop=0;" vertex="1" parent="1">
          <mxGeometry x="40" y="204" width="280" height="192" as="geometry" />
        </mxCell>
        <mxCell id="NBYfNlScyztqVg3j37kq-10" value="side1: double&lt;div&gt;side2: double&lt;/div&gt;&lt;div&gt;side3: double&lt;/div&gt;" style="text;strokeColor=#6c8ebf;fillColor=#dae8fc;align=left;verticalAlign=top;spacingLeft=4;spacingRight=4;overflow=hidden;rotatable=0;points=[[0,0.5],[1,0.5]];portConstraint=eastwest;whiteSpace=wrap;html=1;spacingTop=-6;" vertex="1" parent="NBYfNlScyztqVg3j37kq-9">
          <mxGeometry y="26" width="280" height="44" as="geometry" />
        </mxCell>
        <mxCell id="NBYfNlScyztqVg3j37kq-11" value="" style="line;strokeWidth=1;fillColor=none;align=left;verticalAlign=middle;spacingTop=-1;spacingLeft=3;spacingRight=3;rotatable=0;labelPosition=right;points=[];portConstraint=eastwest;strokeColor=inherit;" vertex="1" parent="NBYfNlScyztqVg3j37kq-9">
          <mxGeometry y="70" width="280" as="geometry" />
        </mxCell>
        <mxCell id="NBYfNlScyztqVg3j37kq-12" value="Triangle()&lt;div&gt;Triangle(s1: double, s2: double, s3: double)&lt;/div&gt;&lt;div&gt;getSideOne(): double&lt;/div&gt;&lt;div&gt;getSideTwo(): double&lt;/div&gt;&lt;div&gt;getSideThree(): double&lt;/div&gt;&lt;div&gt;getArea(): double&lt;/div&gt;&lt;div&gt;getPerimeter(): double&lt;/div&gt;&lt;div&gt;toString(): String&lt;/div&gt;" style="text;strokeColor=#6c8ebf;fillColor=#dae8fc;align=left;verticalAlign=top;spacingLeft=4;spacingRight=4;overflow=hidden;rotatable=0;points=[[0,0.5],[1,0.5]];portConstraint=eastwest;whiteSpace=wrap;html=1;spacingTop=-4;" vertex="1" parent="NBYfNlScyztqVg3j37kq-9">
          <mxGeometry y="70" width="280" height="122" as="geometry" />
        </mxCell>
        <mxCell id="NBYfNlScyztqVg3j37kq-13" value="extends" style="endArrow=block;endSize=16;endFill=0;html=1;rounded=0;" edge="1" parent="1">
          <mxGeometry width="160" relative="1" as="geometry">
            <mxPoint x="330" y="299.58" as="sourcePoint" />
            <mxPoint x="470" y="299.58" as="targetPoint" />
          </mxGeometry>
        </mxCell>
      </root>
    </mxGraphModel>
  </diagram>
</mxfile>
